<svg xmlns="http://www.w3.org/2000/svg" width="42.147" height="39.544" viewBox="0 0 42.147 39.544">
  <g id="backteria" transform="translate(-462.336 -198.553)">
    <g id="Group_151" data-name="Group 151">
      <path id="Path_325" data-name="Path 325" d="M468.755,203.722c.2-.165.4-.33.6-.5a19.757,19.757,0,0,1,20.108-3.245,1.169,1.169,0,0,1,.512,1.889,1.192,1.192,0,0,1-1.325.306c-.781-.263-1.553-.565-2.352-.756a17.2,17.2,0,0,0-13.3,2.043,16.423,16.423,0,0,0-3.724,3.057,17.488,17.488,0,0,0-2.427,20.266,16.583,16.583,0,0,0,2.152,3.052,17.475,17.475,0,0,0,22.763,3.006,16.648,16.648,0,0,0,3.874-3.526,17.311,17.311,0,0,0,3.81-9.2,17.028,17.028,0,0,0-.231-5.1c-.009-.051-.023-.1-.048-.2-.14.339-.263.632-.384.927-.086.211-.178.42-.256.633a1.174,1.174,0,1,1-2.168-.885q.891-2.157,1.78-4.312a1.588,1.588,0,0,1,.527-.808,1.169,1.169,0,0,1,1.465.091q2.007,2,4,4.011a1.167,1.167,0,0,1-1.665,1.637c-.262-.257-.519-.52-.827-.826.021.169.032.278.046.386a19.6,19.6,0,0,1-2.8,13.085,18,18,0,0,1-2.089,2.78,1.878,1.878,0,0,0-.127.176l-1.2,1.2c-.068.052-.142.1-.206.155a18.45,18.45,0,0,1-3.545,2.531,19.62,19.62,0,0,1-14.191,1.964,19.246,19.246,0,0,1-8.343-4.244,19.56,19.56,0,0,1-2.716-2.861,19.113,19.113,0,0,1-2.521-4.261,19.668,19.668,0,0,1-.961-12.934,19.163,19.163,0,0,1,3.983-7.662c.173-.2.34-.413.511-.619Q468.126,204.35,468.755,203.722Z" fill="#fff" fill-rule="evenodd"/>
    </g>
    <g id="h543Wg.tif">
      <g id="Group_152" data-name="Group 152">
        <path id="Path_326" data-name="Path 326" d="M481.3,226.313c-.627-.169-1.229-.329-1.867-.5-.042.069-.108.172-.169.277-.23.4-.449.8-.69,1.189a1.169,1.169,0,0,1-2.017-1.181c.134-.249.282-.491.423-.736s.282-.491.38-.664l-1.409-1.388c-.393.226-.88.514-1.374.788a1.168,1.168,0,0,1-1.185-2.014c.482-.3.978-.572,1.463-.852-.169-.622-.335-1.236-.506-1.87-.555,0-1.122.009-1.688,0a1.176,1.176,0,0,1-1.132-.957,1.157,1.157,0,0,1,.741-1.3,1.586,1.586,0,0,1,.488-.082c.517-.011,1.036,0,1.555-.007a.161.161,0,0,0,.042-.011c.163-.61.327-1.218.5-1.855-.456-.264-.939-.539-1.417-.824a1.169,1.169,0,1,1,1.117-2.054c.427.227.839.481,1.259.721.078.045.158.085.183.054.44-.443.879-.887,1.36-1.373-.211-.369-.48-.836-.75-1.3a1.2,1.2,0,0,1-.182-.835,1.184,1.184,0,0,1,.946-.978,1.166,1.166,0,0,1,1.2.542c.256.42.494.851.74,1.277.042.071.086.14.119.192l1.868-.5c0-.545-.01-1.111,0-1.678a1.171,1.171,0,0,1,1.848-.939,1.136,1.136,0,0,1,.494.964c0,.551,0,1.1,0,1.652l1.872.5c.277-.478.554-.982.854-1.47a1.107,1.107,0,0,1,1.153-.544,1.119,1.119,0,0,1,.951.784,1.131,1.131,0,0,1-.112.986c-.275.475-.547.953-.773,1.347l1.4,1.4c.4-.229.883-.518,1.378-.791a1.17,1.17,0,0,1,1.165,2.029c-.242.148-.49.286-.735.428l-.707.41c.169.623.334,1.237.505,1.87.521,0,1.054,0,1.589,0a1.174,1.174,0,1,1,0,2.345c-.533,0-1.067,0-1.592,0-.168.625-.332,1.232-.5,1.868.462.269.954.547,1.439.838a1.169,1.169,0,0,1-1.139,2.041c-.426-.228-.839-.481-1.259-.722-.078-.046-.159-.085-.184-.054-.44.443-.882.884-1.363,1.367.22.383.494.856.767,1.331a1.171,1.171,0,1,1-1.982,1.249c-.256-.421-.494-.851-.74-1.277-.041-.072-.085-.141-.116-.192l-1.87.5c0,.546,0,1.112,0,1.679a1.179,1.179,0,0,1-.921,1.135,1.152,1.152,0,0,1-1.293-.632,1.56,1.56,0,0,1-.124-.578C481.286,227.383,481.3,226.849,481.3,226.313Zm.47-3.232a2.329,2.329,0,1,0-2.328-2.324A2.335,2.335,0,0,0,481.767,223.081Zm3.971-8.378a1.632,1.632,0,0,0-1.636,1.612,1.629,1.629,0,1,0,3.258.008A1.617,1.617,0,0,0,485.738,214.7Zm-4.185-1.863a1.137,1.137,0,0,0-1.169,1.14,1.161,1.161,0,0,0,1.14,1.18,1.174,1.174,0,0,0,1.174-1.151A1.148,1.148,0,0,0,481.553,212.84Z" fill="#fff" fill-rule="evenodd"/>
      </g>
    </g>
  </g>
</svg>
