<svg xmlns="http://www.w3.org/2000/svg" width="45.124" height="34.948" viewBox="0 0 45.124 34.948">
  <g id="clinic-hos" transform="translate(-42.931 -73.508)">
    <g id="Group_88" data-name="Group 88">
      <path id="Path_190" data-name="Path 190" d="M44.218,108.456V99.729c-.433-.026-.81-.051-1.22-.077v-1.7h1.191v-7.07c-1.36-.233-1.36-.233-1.167-1.833h12.9V83.77L54.851,83.7v-1.74h9.672a5.151,5.151,0,0,1-2.566-2.049,4.233,4.233,0,0,1,3.767-6.4,4.2,4.2,0,0,1,4.027,3.449c.423,2.069-.654,3.779-3.21,4.977h9.667v1.757l-.953.069V89H88.043v1.77l-1.136.066v7.07l1.148.075v1.666l-1.174.077v8.727Zm25.578-.778c0-2.438,0-4.824,0-7.212,0-.573-.366-.707-.862-.705-2.24.006-4.478.012-6.717,0-.606,0-.862.257-.857.853.01,1.205,0,2.41,0,3.616,0,1.138,0,2.276,0,3.452ZM64.648,75.167c-.03.567-.059,1.1-.09,1.67h-1.5v1.926h1.567v1.583h1.919V78.735h1.535V76.784H66.517V75.167Zm14.5,24.748v5.9h1.8v-5.9ZM51.617,97.559v-5.89h-1.8v5.89Zm23.914,2.357v5.9h1.805v-5.9Zm-.01-8.265v5.89h1.8v-5.89Zm5.437.016h-1.82v5.874h1.82ZM49.817,99.912V105.8h1.806V99.912ZM46.2,99.9v5.918h1.785V99.9Zm0-8.246V97.56h1.785V91.651Zm36.925.007v5.887h1.752V91.658ZM53.782,105.8h1.764V99.928H53.782Zm1.787-14.12H53.8v5.864h1.767ZM84.874,105.82v-5.9H83.125v5.9ZM61.31,91.9H58.117v3.041H61.31Zm2.63-5.951v3.044h3.171V85.949Zm-2.618.023h-3.2V89h3.2Zm2.609,8.962h3.175V91.893H63.931Zm5.917-8.988V89h3.195V85.946Zm3.022,5.963H69.858v3.024H72.87Z" fill="#009e54" fill-rule="evenodd"/>
    </g>
  </g>
</svg>
