<svg xmlns="http://www.w3.org/2000/svg" width="44.792" height="42.025" viewBox="0 0 44.792 42.025">
  <g id="disinfect" transform="translate(-39.298 -416.998)">
    <path id="Path_291" data-name="Path 291" d="M46.12,422.49c.213-.177.43-.351.642-.529a21,21,0,0,1,21.369-3.448,1.241,1.241,0,0,1,.545,2.006,1.263,1.263,0,0,1-1.408.326c-.83-.28-1.651-.6-2.5-.8a18.276,18.276,0,0,0-14.129,2.171,17.473,17.473,0,0,0-3.958,3.249A18.588,18.588,0,0,0,44.1,447a17.449,17.449,0,0,0,2.288,3.242,18.573,18.573,0,0,0,24.192,3.2A17.714,17.714,0,0,0,74.7,449.69a18.4,18.4,0,0,0,4.048-9.781,18.161,18.161,0,0,0-.245-5.416c-.01-.054-.025-.107-.051-.212-.15.359-.28.671-.409.984-.092.225-.188.447-.272.674a1.248,1.248,0,1,1-2.3-.942q.946-2.292,1.892-4.583a1.7,1.7,0,0,1,.559-.858,1.243,1.243,0,0,1,1.557.1q2.136,2.122,4.257,4.264a1.24,1.24,0,0,1-1.769,1.737c-.279-.271-.553-.55-.879-.876.022.18.035.295.049.41a20.838,20.838,0,0,1-2.972,13.906,19.421,19.421,0,0,1-2.22,2.955,2.114,2.114,0,0,0-.136.186q-.638.636-1.273,1.273c-.073.055-.152.105-.219.166a19.637,19.637,0,0,1-3.768,2.69,20.866,20.866,0,0,1-15.082,2.087A20.448,20.448,0,0,1,46.6,453.94a20.758,20.758,0,0,1-2.886-3.04,20.317,20.317,0,0,1-2.679-4.528,20.9,20.9,0,0,1-1.022-13.747,20.355,20.355,0,0,1,4.234-8.142c.183-.217.362-.439.543-.659Q45.452,423.156,46.12,422.49Z" fill="#009e54" fill-rule="evenodd"/>
    <g id="TpHYNQ.tif">
      <g id="Group_133" data-name="Group 133">
        <path id="Path_292" data-name="Path 292" d="M67.837,444.236c0-.333.007-.67-.006-1.006a.284.284,0,0,0-.13-.193,1.88,1.88,0,0,1-.895-2.108.412.412,0,0,0-.025-.264c-.471-.642-.955-1.275-1.435-1.91-.026-.033-.056-.063-.149-.167V449.32a1.667,1.667,0,0,1-1.736,1.756,2.839,2.839,0,0,1-2.442-1.1c-.085.089-.158.163-.229.239a2.828,2.828,0,0,1-2.639.824,1.638,1.638,0,0,1-1.328-1.64q0-5.572,0-11.145v-.34l-.061-.011c-.516.918-1.051,1.827-1.545,2.758a2.653,2.653,0,0,1-1.644,1.492,29.576,29.576,0,0,1,.072,3.712.747.747,0,0,1-.25.435q-1.356,1.378-2.732,2.738a.55.55,0,0,0,.4,1c1.53-.005,3.06-.011,4.589.009a.773.773,0,0,1,.544.262c.251.338-.04.753-.507.756-.983.006-1.966,0-2.95,0H51.069a1.605,1.605,0,0,1-1.55-.957,1.63,1.63,0,0,1,.412-1.8c.817-.82,1.634-1.643,2.46-2.454a.71.71,0,0,0,.242-.569c-.016-.754,0-1.508-.009-2.262a2.014,2.014,0,0,0-.046-.386.9.9,0,0,0-.564-.72,1.291,1.291,0,0,1-.575-1.76.973.973,0,0,0,.045-.834q-1.147-3.395-2.264-6.8c-.086-.261-.2-.374-.478-.347a6.583,6.583,0,0,1-.819,0,.514.514,0,1,1,0-1.027c.481-.008.962,0,1.442,0a.6.6,0,0,1,.639.48c.715,2.175,1.445,4.346,2.17,6.518.023.069.055.136.1.247.066-.1.115-.165.154-.234a16.327,16.327,0,0,0,1.713-4.368c.237-1.018.551-2.019.834-3.026a2.644,2.644,0,0,1,1.3-1.651c.485-.271.974-.533,1.489-.814a1.912,1.912,0,0,1-.353-1.654A1.655,1.655,0,0,1,57.7,426a1.022,1.022,0,0,0,.227-.867,3.142,3.142,0,0,1,2.6-3.372A3.189,3.189,0,0,1,63.9,423.7a3.909,3.909,0,0,1,.185,1.738.53.53,0,0,0,.079.325,1.954,1.954,0,0,1,.158,2.428.947.947,0,0,0-.052.121c.409.223.814.454,1.228.668a2.823,2.823,0,0,1,1.548,2.14c.27,1.5.563,3,.862,4.5a2.123,2.123,0,0,0,.286.687c.514.825,1.037,1.645,1.577,2.452a1.633,1.633,0,0,1,.306,1.31h.762a1.146,1.146,0,0,1,1.188,1.163,1.788,1.788,0,0,1-.928,1.808.285.285,0,0,0-.122.2c-.013.325-.006.652-.006,1a3.879,3.879,0,0,1,.462.049,1.449,1.449,0,0,1,1.111,1.4q0,1.967,0,3.933a1.416,1.416,0,0,1-1.424,1.44q-1.72,0-3.441,0a1.411,1.411,0,0,1-1.41-1.42q0-1.917,0-3.834a1.422,1.422,0,0,1,1.45-1.548A1.18,1.18,0,0,0,67.837,444.236Zm-7.342-15.308-1.114.07c-.151.008-.3.011-.454.026a1.278,1.278,0,0,0-.426.074c-.573.294-1.132.615-1.7.913a1.592,1.592,0,0,0-.841,1.072c-.106.411-.221.821-.336,1.23a23.836,23.836,0,0,1-2.234,6.262c-.08.13-.123.283-.213.4a1.608,1.608,0,0,0-.134,1.791c.2.41.285.476.669.214a.679.679,0,0,0,.214-.2q.978-1.723,1.94-3.453a.63.63,0,0,0,.046-.156c.3-1.16.61-2.32.908-3.481a.506.506,0,0,1,.553-.444c.326.015.484.225.484.641q0,7.588,0,15.177c0,.948.022.969.974.967a1.515,1.515,0,0,0,1.666-1.668q0-1.968,0-3.934c0-.743-.005-1.486,0-2.229a.512.512,0,0,1,.76-.495.583.583,0,0,1,.271.587c0,1.913.035,3.826-.015,5.737-.036,1.359.547,2.107,2.068,2,.434-.03.582-.159.585-.6,0-.688,0-1.377,0-2.065q0-6.736,0-13.472c0-.422.154-.628.478-.646s.509.161.561.572c.109.888.2,1.779.34,2.664a3.345,3.345,0,0,0,.339,1.207c.428.709.952,1.358,1.439,2.031a1.146,1.146,0,0,0,1.5.355c.339-.2.38-.266.164-.6-.548-.855-1.118-1.7-1.639-2.567a3.905,3.905,0,0,1-.475-1.171c-.317-1.516-.594-3.041-.876-4.564a1.607,1.607,0,0,0-.883-1.222c-.428-.219-.846-.456-1.267-.687-.293-.16-.57-.366-.942-.24a.423.423,0,0,1-.287-.04c-.369-.185-.717-.033-1.1.029v7.552c0,.12.006.241,0,.36a.513.513,0,0,1-1.025.015,2.541,2.541,0,0,1,0-.262v-7.755Zm6.8,18.74c0,.666.006,1.332,0,2,0,.262.1.374.366.372q1.736-.009,3.472,0c.257,0,.384-.081.382-.357q-.009-2.016,0-4.029c0-.248-.1-.358-.348-.357q-1.753.008-3.506,0c-.269,0-.369.112-.366.374C67.3,446.337,67.295,447,67.295,447.668Zm-6.284-23.434c-.59.1-1.118.17-1.637.287-.484.108-.453.129-.431.62.012.291.213.3.384.4.2.117.274-.035.381-.131a1.777,1.777,0,0,1,2.606.019c.225.215.376.106.571.03.3-.118.174-.394.191-.6.007-.083-.173-.241-.29-.268C62.184,424.457,61.576,424.347,61.011,424.234ZM67.824,441.2c0,.179-.011.352,0,.524a.435.435,0,0,0,.466.445c.742.008,1.482.008,2.224,0a.434.434,0,0,0,.463-.449c.011-.192,0-.386,0-.641Zm-6.175-13.23a2.085,2.085,0,0,1,.1-1.5.213.213,0,0,0-.02-.173.878.878,0,0,0-1.445,0c-.025.041-.053.11-.036.144a2.106,2.106,0,0,1,.124,1.532Zm-2.125-.557a5.432,5.432,0,0,0-.4-.793.487.487,0,0,0-.426-.162.53.53,0,0,0-.311.379,1.8,1.8,0,0,0,.185.836.7.7,0,0,0,.538.308C59.371,427.963,59.495,427.721,59.524,427.409Zm4.167-.553a1.3,1.3,0,0,0-.318-.385.469.469,0,0,0-.432.069,1.255,1.255,0,0,0-.373,1.036.406.406,0,0,0,.621.36C63.593,427.732,63.583,427.324,63.691,426.856Zm-4.209-3.472c.528-.034,1.038-.1,1.547-.091s1.033.08,1.543.124A2.155,2.155,0,0,0,59.482,423.384Zm9.411,19.833v1.03h1.024v-1.03Z" fill="#009e54" fill-rule="evenodd"/>
      </g>
    </g>
  </g>
</svg>
