<svg xmlns="http://www.w3.org/2000/svg" width="42.147" height="39.544" viewBox="0 0 42.147 39.544">
  <g id="eco" transform="translate(-308.909 -25.57)">
    <path id="Path_306" data-name="Path 306" d="M315.329,30.738c.2-.166.4-.331.6-.5A19.758,19.758,0,0,1,336.04,27a1.167,1.167,0,0,1,.513,1.887,1.19,1.19,0,0,1-1.325.307c-.781-.263-1.554-.565-2.352-.756a17.2,17.2,0,0,0-13.3,2.043,16.467,16.467,0,0,0-3.724,3.056A17.49,17.49,0,0,0,313.43,53.8a16.427,16.427,0,0,0,2.152,3.051,17.475,17.475,0,0,0,22.764,3.007,16.648,16.648,0,0,0,3.874-3.526,17.313,17.313,0,0,0,3.809-9.2,17.031,17.031,0,0,0-.231-5.1c-.009-.05-.023-.1-.048-.2l-.384.927c-.086.211-.178.42-.256.633a1.175,1.175,0,1,1-2.168-.886q.891-2.156,1.78-4.312a1.59,1.59,0,0,1,.526-.807,1.169,1.169,0,0,1,1.465.091q2.01,2,4.007,4.011a1.168,1.168,0,0,1-1.665,1.637c-.263-.257-.52-.52-.828-.826.021.169.033.277.047.386a19.6,19.6,0,0,1-2.8,13.085,18.132,18.132,0,0,1-2.089,2.78,1.868,1.868,0,0,0-.128.175l-1.2,1.2c-.068.052-.143.1-.206.155a18.372,18.372,0,0,1-3.545,2.53,19.616,19.616,0,0,1-14.191,1.965,19.246,19.246,0,0,1-8.343-4.244,19.557,19.557,0,0,1-2.716-2.861,19.15,19.15,0,0,1-2.521-4.261,19.664,19.664,0,0,1-.961-12.935,19.172,19.172,0,0,1,3.983-7.661c.173-.2.34-.413.511-.62Z" fill="#fff" fill-rule="evenodd"/>
    <path id="Path_307" data-name="Path 307" d="M323.4,56.456a3.854,3.854,0,0,0,.454,1.708,1.166,1.166,0,0,1-2,1.2,5.769,5.769,0,0,1-.781-2.657c-.033-.36-.024-.725-.039-1.087a.5.5,0,0,0-.055-.228,13.719,13.719,0,0,1-1.593-10.435,16.3,16.3,0,0,1,2.561-5.88,16.531,16.531,0,0,1,3.005-3.268,20.941,20.941,0,0,1,8.407-4.141c2.051-.52,4.125-.925,6.216-1.252a1.137,1.137,0,0,1,1.237.518,1.161,1.161,0,0,1-.07,1.373c-.45.666-.911,1.327-1.327,2.015a3.984,3.984,0,0,0-.428,1.053,17.506,17.506,0,0,0-.511,3.645c-.094,2-.18,4-.291,6a12.78,12.78,0,0,1-1.719,5.874,10.313,10.313,0,0,1-5.208,4.452,17.022,17.022,0,0,1-6.546,1.141C324.29,56.489,323.859,56.469,323.4,56.456Zm13.946-23.27c-.078.012-.138.019-.2.031-.918.2-1.839.391-2.754.6a18.947,18.947,0,0,0-7.647,3.563,14.408,14.408,0,0,0-2.526,2.561,13.888,13.888,0,0,0-2.33,4.668,12.5,12.5,0,0,0-.164,6.648c.033.127.07.252.117.418.039-.075.058-.108.073-.143a36.765,36.765,0,0,1,3.98-7.057c.712-1.017,1.46-2.008,2.234-2.977.557-.7,1.164-1.356,1.786-2a5.151,5.151,0,0,1,1.055-.83,1.137,1.137,0,0,1,1.543.472,1.2,1.2,0,0,1-.4,1.547,4.028,4.028,0,0,0-.807.691c-.8.953-1.607,1.911-2.365,2.9a45.679,45.679,0,0,0-3.524,5.353,19.364,19.364,0,0,0-1.791,3.967c-.048.162-.084.329-.129.511.378.013.721.032,1.063.037a14.885,14.885,0,0,0,5.861-.984,8.015,8.015,0,0,0,3.477-2.621,9.2,9.2,0,0,0,1.833-4.557c.163-1.427.2-2.867.292-4.3.1-1.576.156-3.156.3-4.727a11.046,11.046,0,0,1,.688-3.056C337.109,33.665,337.231,33.435,337.348,33.186Z" fill="#fff" fill-rule="evenodd"/>
  </g>
</svg>
