<svg xmlns="http://www.w3.org/2000/svg" width="46.725" height="36.704" viewBox="0 0 46.725 36.704">
  <g id="food-res" transform="translate(-39.703 -271.262)">
    <g id="Group_91" data-name="Group 91">
      <path id="Path_209" data-name="Path 209" d="M81.062,290.443a17.53,17.53,0,1,1-17.417-17.59A17.535,17.535,0,0,1,81.062,290.443Zm-4.613-.029a12.918,12.918,0,1,0-12.907,12.931A12.951,12.951,0,0,0,76.449,290.414Z" fill="#009e54" fill-rule="evenodd"/>
      <path id="Path_210" data-name="Path 210" d="M82.047,286.183c0-1.852.014-3.737,0-5.621a20.358,20.358,0,0,1,.518-5.934,17.027,17.027,0,0,1,.88-2.181,2.231,2.231,0,0,1,.479-.646,1.359,1.359,0,0,1,1.454-.47c.591.207.6.75.611,1.248.029,1.516.03,3.033.051,4.55q.193,14.648.393,29.294a1.563,1.563,0,0,1-1.8,1.51c-1.02-.15-1.377-.558-1.351-1.572q.241-9.285.5-18.568c.035-1.159-.091-1.619-1.383-1.523A1.682,1.682,0,0,1,82.047,286.183Z" fill="#009e54" fill-rule="evenodd"/>
      <path id="Path_211" data-name="Path 211" d="M42.357,271.323a4.221,4.221,0,0,1,.08.565c.025,1.7.038,3.408.065,5.111.005.35-.128.879.422.86.512-.016.414-.54.418-.9.02-1.684.022-3.367.04-5.05a4.14,4.14,0,0,1,.092-.6l.216-.009a3.87,3.87,0,0,1,.12.647c.031,1.683.048,3.366.069,5.049,0,.083-.029.185.007.246.128.222.279.429.422.642.142-.221.391-.435.406-.664.052-.829.026-1.661.028-2.493,0-1,0-1.995.016-2.992,0-.136.119-.272.182-.408.1.124.283.238.3.374.3,2.115.585,4.233.875,6.349a1.809,1.809,0,0,1-.62,1.679,4.976,4.976,0,0,0-1.616,4.182c.254,7.5.43,14.995.634,22.493a1.373,1.373,0,0,1-1.674,1.549,3.339,3.339,0,0,1-.672-.129c-.763-.229-.918-.438-.9-1.235q.311-11.684.637-23.365a3.732,3.732,0,0,0-1.18-3.029,2.929,2.929,0,0,1-.957-2.952c.313-1.776.5-3.574.762-5.359a1.916,1.916,0,0,1,.289-.555,1.9,1.9,0,0,1,.236.6c.034,1.724.04,3.449.056,5.173,0,.327-.065.754.414.752.431,0,.39-.4.394-.712.027-1.745.051-3.491.087-5.235a3.407,3.407,0,0,1,.123-.614Z" fill="#009e54" fill-rule="evenodd"/>
    </g>
  </g>
</svg>
