<svg xmlns="http://www.w3.org/2000/svg" width="42.096" height="47.082" viewBox="0 0 42.096 47.082">
  <g id="home-off" transform="translate(-42.018 -327.929)">
    <g id="Group_92" data-name="Group 92">
      <path id="Path_212" data-name="Path 212" d="M79.387,357.218v14.149H67.949v-10.5H58.271v10.49H46.778V357.218Zm-4.2,8.823h1.647v-3.327H75.19Zm-23.426,0H53.4V362.7h-1.64Zm22.913-3.363H73.121v3.391h1.556Zm-24.992,3.36h1.547v-3.356H49.685Zm3.72-3.811v-2.781h-1.61v2.781Zm23.41-.016v-2.75H75.2v2.75Zm-2.137,0v-2.752H73.11v2.752Zm-23.43-2.757H49.717v2.74h1.531Z" fill="#009e54" fill-rule="evenodd"/>
      <path id="Path_213" data-name="Path 213" d="M42.018,356.646c2.183-2.51,4.255-4.914,6.368-7.283a1.483,1.483,0,0,1,1-.307q13.681-.023,27.363,0a1.462,1.462,0,0,1,1,.317c2.113,2.365,4.186,4.767,6.367,7.271Z" fill="#009e54" fill-rule="evenodd"/>
      <path id="Path_214" data-name="Path 214" d="M76.444,338.2H49.685c1.369-1.573,2.695-2.977,3.878-4.492.913-1.172,1.867-1.963,3.47-1.686a1.927,1.927,0,0,0,1.194-.488c1.608-1.166,3.187-2.373,4.834-3.608,1.414,1.059,2.852,2.067,4.209,3.174a4.1,4.1,0,0,0,2.868,1,2.374,2.374,0,0,1,1.593.717C73.307,334.517,74.791,336.3,76.444,338.2Z" fill="#009e54" fill-rule="evenodd"/>
      <path id="Path_215" data-name="Path 215" d="M72.616,338.789v9.718H65.569v-6.97H60.643v6.988h-7.1v-9.736Zm-2.535,4.617-1.169.084v1.988c.443-.033.795-.057,1.169-.084Zm-2.75.055v2.019l1.133-.084v-1.935Zm-9.676,0v2.012l1.153-.062v-1.95Zm-.41.059H56.057v1.854h1.188Zm11.64-1.873v1.4h1.167v-1.4Zm-.385.051H67.324v1.441l1.176-.056Zm-9.674,1.342V341.7H57.643C57.5,342.625,57.424,343.414,58.826,343.037Zm-1.582-1.444-1.177.08v1.4h1.177Z" fill="#009e54" fill-rule="evenodd"/>
      <path id="Path_216" data-name="Path 216" d="M67.1,371.392h-3.87v-9.869H67.1Z" fill="#009e54" fill-rule="evenodd"/>
      <path id="Path_217" data-name="Path 217" d="M62.881,371.38H59.024v-9.824h3.857Z" fill="#009e54" fill-rule="evenodd"/>
      <path id="Path_218" data-name="Path 218" d="M61,348.533v-6.539H65.1v6.539Z" fill="#009e54" fill-rule="evenodd"/>
      <path id="Path_219" data-name="Path 219" d="M67.222,374.31c-.425.682-6.224.924-8.273.467.067-.162.13-.447.194-.447C61.808,374.306,64.474,374.31,67.222,374.31Z" fill="#009e54" fill-rule="evenodd"/>
      <path id="Path_220" data-name="Path 220" d="M67.22,372.146a2.325,2.325,0,0,1-.695.322c-3.141.287-7.158.043-7.627-.552h8.23C67.159,371.992,67.19,372.068,67.22,372.146Z" fill="#009e54" fill-rule="evenodd"/>
      <path id="Path_221" data-name="Path 221" d="M58.909,373.957c.748-.788,7.557-.788,8.321,0Z" fill="#009e54" fill-rule="evenodd"/>
      <path id="Path_222" data-name="Path 222" d="M59.016,372.8h8.1c0,.086,0,.172,0,.258H59.017C59.017,372.968,59.017,372.882,59.016,372.8Z" fill="#009e54" fill-rule="evenodd"/>
    </g>
  </g>
</svg>
