<svg xmlns="http://www.w3.org/2000/svg" width="46.312" height="48.725" viewBox="0 0 46.312 48.725">
  <g id="hotel-com" transform="translate(-39.91 -201.098)">
    <g id="Group_90" data-name="Group 90">
      <path id="Path_201" data-name="Path 201" d="M75.334,212.9l10.881,3.138v15.588q0,7.194.007,14.389a.469.469,0,0,1-.371.543c-2.836.971-5.666,1.959-8.5,2.943-.054.018-.108.032-.207.061V236.236H75.334Z" fill="#009e54" fill-rule="evenodd"/>
      <path id="Path_202" data-name="Path 202" d="M76.238,237.166v12.657H39.91V237.166ZM74.395,238.8H41.723v3.033H74.395Zm-11.786,7.771H74.386V243.51H62.609Zm-9.11-3.069H41.734v3.065H53.5Zm4.53,3.068v-3.067H55.535v3.067Zm2.73-3.054H58.276v3.056h2.483Zm-7.229,5.94h9.044c.033-.5.019-.519-.443-.521-2.71,0-5.42,0-8.13-.006C53.632,248.932,53.624,249.186,53.53,249.461Zm.384-.9H62.36c-.005-.258-.11-.341-.348-.341q-3.879.012-7.754,0C54.014,248.214,53.914,248.295,53.914,248.556Zm.241-.713H62.11c.013-.253-.072-.353-.322-.352q-3.649.012-7.3,0C54.253,247.492,54.148,247.578,54.155,247.843Zm.229-.76h7.568A54.75,54.75,0,0,0,54.384,247.083Z" fill="#009e54" fill-rule="evenodd"/>
      <path id="Path_203" data-name="Path 203" d="M71.306,208.3a1.337,1.337,0,0,0-1.407,1.338c-.069.6-.106,1.206-.171,1.807-.03.274.166.259.33.293,1.342.275,2.684.555,4.029.818.239.047.328.129.322.383-.016.834,0,1.67,0,2.551a70.939,70.939,0,0,0-16.358-1.871A74.649,74.649,0,0,0,41.7,215.483v-1.1c0-.5-.011-1,.009-1.5a.366.366,0,0,1,.2-.283c1.489-.315,2.982-.612,4.474-.909a1.665,1.665,0,0,1,.29,0c-.04-.728-.023-1.452-.133-2.154a1.425,1.425,0,0,0-1.356-1.231v-5.763a60.182,60.182,0,0,1,26.122,0Zm-5.851-.726a53.408,53.408,0,0,0-14.542,0c.083,1.172.162,2.306.246,3.472a69.322,69.322,0,0,1,14.06.019C65.3,209.88,65.376,208.737,65.455,207.571ZM54.821,203.8l-.05.005c-.114-.482-.22-.967-.35-1.445-.026-.095-.145-.241-.213-.238-.438.023-.873.081-1.335.131.153,1.367.3,2.7.454,4.055l.9-.1c-.065-.811-.129-1.593-.192-2.374l.045-.007c.186.775.372,1.548.555,2.313.659.044.651.044.69-.564.041-.631.1-1.26.151-1.89h.043c.052.8.1,1.591.157,2.372H56.6c-.053-1.38-.1-2.724-.157-4.074-.428.021-.81.056-1.192.052-.268,0-.333.119-.341.357C54.889,202.859,54.85,203.329,54.821,203.8Zm4.109-1.827H57.237c-.15,1.352-.3,2.7-.447,4.041h1.09c.023-.246.041-.463.062-.692h.382c.032.238.064.462.095.692H59.48C59.295,204.654,59.114,203.322,58.93,201.972Zm4.411,4.326c.032-.308.057-.552.082-.8l-.648-.072c.1-1.1.2-2.165.3-3.255l-1.147-.088c-.1,1.376-.193,2.712-.289,4.062Zm-1.978-.967c-.037,0-.092-.017-.147-.02-.463-.033-.457-.031-.428-.506.046-.8.085-1.6.125-2.406.005-.123,0-.246,0-.383l-1.121-.053c-.044,1.386-.085,2.718-.129,4.125.389,0,.735-.005,1.081,0,.706.014.706.017.652-.709C61.4,205.372,61.385,205.363,61.363,205.331Z" fill="#009e54" fill-rule="evenodd"/>
      <path id="Path_204" data-name="Path 204" d="M74.4,231.891a184.849,184.849,0,0,0-32.7,0v-1.248c0-.547.009-1.1,0-1.642-.005-.231.058-.327.3-.35,3.035-.28,6.064-.615,9.1-.849a96.108,96.108,0,0,1,10.855-.155c1.849.066,3.7.158,5.541.315,2.225.189,4.443.459,6.661.705.087.01.229.14.23.216C74.408,229.87,74.4,230.856,74.4,231.891Z" fill="#009e54" fill-rule="evenodd"/>
      <path id="Path_205" data-name="Path 205" d="M41.7,226.417c0-1.031-.006-2.008.009-2.984,0-.078.136-.207.223-.222,1.675-.269,3.347-.577,5.031-.769,2.219-.252,4.445-.46,6.674-.6a68.553,68.553,0,0,1,9.11.016q3.55.258,7.089.656c1.454.163,2.894.449,4.338.693a.327.327,0,0,1,.216.227c.015.976.01,1.953.01,2.978A121.909,121.909,0,0,0,41.7,226.417Z" fill="#009e54" fill-rule="evenodd"/>
      <path id="Path_206" data-name="Path 206" d="M41.7,220.941v-2.377c0-.746,0-.756.73-.921a71.909,71.909,0,0,1,8.253-1.369,69.962,69.962,0,0,1,10.356-.338,62.842,62.842,0,0,1,8.018.815c1.705.293,3.4.662,5.094,1,.078.015.153.046.23.069v3.116A91.19,91.19,0,0,0,41.7,220.941Z" fill="#009e54" fill-rule="evenodd"/>
      <path id="Path_207" data-name="Path 207" d="M41.716,236.2v-2.018a179.982,179.982,0,0,1,32.688-.011V236.2Z" fill="#009e54" fill-rule="evenodd"/>
      <path id="Path_208" data-name="Path 208" d="M57.91,204.571c.065-.527.121-.993.178-1.458h.066c.05.467.1.934.15,1.436Z" fill="#009e54" fill-rule="evenodd"/>
    </g>
  </g>
</svg>
