<svg xmlns="http://www.w3.org/2000/svg" width="44.792" height="42.026" viewBox="0 0 44.792 42.026">
  <g id="humidify" transform="translate(-39.298 -146.251)">
    <path id="Path_272" data-name="Path 272" d="M46.12,151.744c.213-.177.43-.351.642-.53a21,21,0,0,1,21.369-3.447,1.241,1.241,0,0,1,.545,2.006,1.264,1.264,0,0,1-1.408.326c-.83-.28-1.651-.6-2.5-.8a18.281,18.281,0,0,0-14.129,2.172,17.5,17.5,0,0,0-3.958,3.248A18.588,18.588,0,0,0,44.1,176.253,17.488,17.488,0,0,0,46.39,179.5a18.57,18.57,0,0,0,24.192,3.2,17.715,17.715,0,0,0,4.117-3.748,18.406,18.406,0,0,0,4.048-9.781,18.171,18.171,0,0,0-.245-5.417c-.01-.054-.025-.1-.051-.211-.15.359-.28.671-.409.984-.092.224-.188.447-.272.674a1.248,1.248,0,1,1-2.3-.942q.946-2.292,1.892-4.583a1.684,1.684,0,0,1,.559-.857,1.24,1.24,0,0,1,1.557.1q2.136,2.123,4.257,4.263a1.24,1.24,0,0,1-1.769,1.739c-.279-.273-.553-.551-.879-.877.022.179.035.295.049.41a20.842,20.842,0,0,1-2.972,13.907,19.461,19.461,0,0,1-2.22,2.954,2.112,2.112,0,0,0-.136.186l-1.273,1.274c-.073.055-.152.1-.219.165a19.587,19.587,0,0,1-3.768,2.689,20.856,20.856,0,0,1-15.082,2.088,20.448,20.448,0,0,1-8.866-4.511,20.809,20.809,0,0,1-2.886-3.04,20.34,20.34,0,0,1-2.679-4.528,20.9,20.9,0,0,1-1.022-13.747,20.354,20.354,0,0,1,4.234-8.142c.183-.217.362-.44.543-.659Q45.452,152.41,46.12,151.744Z" fill="#009e54" fill-rule="evenodd"/>
    <g id="q7RoGz.tif">
      <g id="Group_120" data-name="Group 120">
        <path id="Path_273" data-name="Path 273" d="M47.227,172.554a10.378,10.378,0,0,1,2.255-6.311c.991-1.308,2.078-2.543,3.147-3.79a18.01,18.01,0,0,0,3.219-4.693,20.332,20.332,0,0,0,.636-1.992c.113-.377.319-.592.617-.589s.523.209.6.6a12.962,12.962,0,0,0,3,5.661c1.173,1.4,2.4,2.757,3.545,4.178a11.635,11.635,0,0,1,2.494,5.008,9.027,9.027,0,0,1-1.424,7.117,9.787,9.787,0,0,1-6.647,4.343,9.45,9.45,0,0,1-7.96-2.277,9.605,9.605,0,0,1-3.371-5.917C47.27,173.449,47.264,173,47.227,172.554Zm9.858-14.506c-.084.175-.13.288-.192.394a20.455,20.455,0,0,1-1.359,2.308c-1.084,1.41-2.25,2.758-3.4,4.116a19.451,19.451,0,0,0-2.671,3.714,8.127,8.127,0,0,0-.818,5.594,8.571,8.571,0,0,0,3.782,5.389A8.124,8.124,0,0,0,58.4,180.9a8.585,8.585,0,0,0,4.832-2.529,8.2,8.2,0,0,0,2.5-5.543,8.4,8.4,0,0,0-1.072-4.395,26.219,26.219,0,0,0-3.615-4.725,26.236,26.236,0,0,1-3.1-4.043C57.653,159.161,57.4,158.638,57.085,158.048Z" fill="#009e54" stroke="#009e54" stroke-miterlimit="10" stroke-width="1" fill-rule="evenodd"/>
        <path id="Path_274" data-name="Path 274" d="M68.135,171.412a5.829,5.829,0,0,0,2.936-7.908,15.923,15.923,0,0,0-2.342-3.35,17.077,17.077,0,0,1-2.282-3.311,1.05,1.05,0,0,0-.129-.151,26.719,26.719,0,0,1-3.451,4.8l-.972-.743c.483-.6.952-1.171,1.42-1.749a10.567,10.567,0,0,0,2.324-4.1c.04-.167.072-.336.118-.5a.58.58,0,0,1,.6-.466.551.551,0,0,1,.57.463,10,10,0,0,0,2.414,4.573,24.157,24.157,0,0,1,2.593,3.519,7.26,7.26,0,0,1,.938,4.137,6.813,6.813,0,0,1-2.528,4.837,14.581,14.581,0,0,1-1.47.95c-.226.145-.341.072-.419-.171C68.369,171.973,68.252,171.711,68.135,171.412Z" fill="#009e54" stroke="#009e54" stroke-miterlimit="10" stroke-width="1" fill-rule="evenodd"/>
        <path id="Path_275" data-name="Path 275" d="M50.5,171.739c.608,0,.58,0,.642.617a6.485,6.485,0,0,0,1.911,3.947,6.6,6.6,0,0,0,4.377,2.055c.208.015.3.079.279.285-.008.091,0,.184,0,.276-.023.711-.024.721-.745.631A8.116,8.116,0,0,1,50.008,173c-.048-.282-.088-.564-.13-.848s.04-.471.383-.412A1.489,1.489,0,0,0,50.5,171.739Z" fill="#009e54" stroke="#009e54" stroke-miterlimit="10" stroke-width="1" fill-rule="evenodd"/>
      </g>
    </g>
  </g>
</svg>
