<svg xmlns="http://www.w3.org/2000/svg" width="42.147" height="39.544" viewBox="0 0 42.147 39.544">
  <g id="indoor-outdoor" transform="translate(-490.336 -252.553)">
    <g id="Group_154" data-name="Group 154">
      <path id="Path_327" data-name="Path 327" d="M496.755,257.722c.2-.165.4-.33.6-.5a19.757,19.757,0,0,1,20.108-3.245,1.169,1.169,0,0,1,.512,1.889,1.192,1.192,0,0,1-1.325.306c-.781-.263-1.553-.565-2.352-.756a17.2,17.2,0,0,0-13.3,2.043,16.423,16.423,0,0,0-3.724,3.057,17.488,17.488,0,0,0-2.427,20.266,16.582,16.582,0,0,0,2.152,3.052,17.475,17.475,0,0,0,22.763,3.006,16.648,16.648,0,0,0,3.874-3.526,17.311,17.311,0,0,0,3.81-9.2,17.029,17.029,0,0,0-.231-5.1c-.009-.051-.023-.1-.048-.2-.14.339-.263.632-.384.927-.086.211-.178.42-.256.633a1.174,1.174,0,1,1-2.168-.885q.891-2.157,1.78-4.312a1.588,1.588,0,0,1,.527-.808,1.169,1.169,0,0,1,1.465.091q2.007,2,4.005,4.011a1.168,1.168,0,0,1-1.665,1.637c-.262-.257-.519-.52-.827-.826.021.169.032.278.046.386a19.6,19.6,0,0,1-2.8,13.085,18.006,18.006,0,0,1-2.089,2.78,1.893,1.893,0,0,0-.127.176l-1.2,1.2c-.068.052-.142.1-.206.155a18.45,18.45,0,0,1-3.545,2.531,19.62,19.62,0,0,1-14.191,1.964,19.245,19.245,0,0,1-8.343-4.244,19.562,19.562,0,0,1-2.716-2.861,19.113,19.113,0,0,1-2.521-4.261,19.668,19.668,0,0,1-.961-12.934,19.163,19.163,0,0,1,3.983-7.662c.173-.2.34-.413.511-.619Q496.126,258.349,496.755,257.722Z" fill="#fff" fill-rule="evenodd"/>
      <g id="_7LlyGo" data-name="7LlyGo">
        <g id="Group_156" data-name="Group 156">
          <path id="Path_328" data-name="Path 328" d="M510.4,286.2h-1.135a2.339,2.339,0,0,0-.51-.167,13.722,13.722,0,0,1-11.978-10.066c-.176-.643-.33-1.291-.494-1.937v-3.57c.055-.084.143-.163.158-.254a13.7,13.7,0,0,1,11.2-11.476c.382-.08.757-.185,1.135-.277h2.11c.263.056.524.135.791.165a13.786,13.786,0,0,1,11.679,9.931c.178.635.341,1.274.511,1.911v3.57a2.337,2.337,0,0,0-.171.438,13.317,13.317,0,0,1-8.387,10.558A30.985,30.985,0,0,1,510.4,286.2Zm1.8-20.559.275-.258,3.14,1.64c-.065-.867.411-.938.991-.916.649.024,1.3.034,1.948,0s1,.186.9.876c-.2,1.429.038,2.592,1.658,3.044.169.048.257.388.383.591-.261.041-.552.176-.775.1a8.833,8.833,0,0,1-1.264-.646c0,2.71-.018,5.251.013,7.791.007.667-.2.9-.876.887-2.325-.034-4.652-.014-6.977-.01-.286,0-.573.025-.862.038v5.974c5.893.165,11.631-5.649,11.869-11.758a12.574,12.574,0,0,0-11.869-13.16V277.9h1.284v-5.736c.921,0,1.782.045,2.638-.014.7-.048.862.227.844.882-.042,1.613-.013,3.229-.013,4.853H518.6c0-2.659.018-5.254-.025-7.848a1.132,1.132,0,0,0-.565-.746c-1.7-.948-3.425-1.834-5.116-2.79C512.6,266.337,512.433,265.938,512.205,265.644Zm-2.677-5.785a.824.824,0,0,0-.215-.069,12.589,12.589,0,0,0-10.732,17.57c.322.731.647.914,1.372.6.464-.2.995-.231,1.482-.386.168-.055.292-.252.435-.384-.152-.142-.281-.347-.462-.416-.6-.229-1.244-.356-1.823-.623-.495-.229-.5-.6-.015-.909l1.231-.782a3.585,3.585,0,0,1-.626-.282c-.241-.181-.454-.4-.68-.606a6.678,6.678,0,0,1,.586-.6c.339-.276.705-.521,1.092-.8-1.107-.641-1.086-.7-.144-1.443a8.343,8.343,0,0,0,1.207-1.288,10,10,0,0,0,.628-.958l.835.945a4.279,4.279,0,0,0,1.611-1.973.791.791,0,0,1,.485-.413c.086-.024.312.241.382.413a4.829,4.829,0,0,0,2.082,2.3,3.261,3.261,0,0,1,.575.6c-.237.187-.468.381-.713.554a2.915,2.915,0,0,1-.536.189c.709.457,1.274.82,1.943,1.249Zm.062,24.988c0-1.847-.033-3.568.016-5.285.018-.632-.249-.842-.789-.974a17.034,17.034,0,0,0-6.419-.311c-.96.133-1.9.421-2.987.672A12.815,12.815,0,0,0,509.59,284.847Zm-.9-9.6c-.593-.512-1.117-.927-1.59-1.39a.753.753,0,0,1-.216-.623c.05-.149.356-.238.566-.3.264-.084.545-.118.918-.194-.691-.555-1.288-1.008-1.848-1.505a.746.746,0,0,1-.256-.6c.039-.144.36-.214.565-.3a3.222,3.222,0,0,1,.4-.108c-.563-.518-1.066-.979-1.421-1.3l-1.479,1.219.955.511a7.244,7.244,0,0,1-.746.969c-.409.379-.884.687-1.4,1.08.278.089.475.148.671.215.285.1.57.2.855.3a4.371,4.371,0,0,1-.539.917,15.292,15.292,0,0,1-1.323,1.1A10.048,10.048,0,0,0,508.686,275.246Zm4.008,2.374h2.247c0-1.5.017-2.924-.018-4.35a.68.68,0,0,0-.424-.5,17.31,17.31,0,0,0-1.805-.024Zm-3.152-1.642c-.858.166-1.669.3-2.465.5a.587.587,0,0,0-.3.454c-.005.164.141.455.262.481.82.172,1.652.287,2.505.424Zm9.011-9.039h-2.144c.4,1.091,1.38,1.144,2.144,1.7Zm-10.443,6.809,1.439.834v-1.274Z" fill="#fff"/>
        </g>
      </g>
    </g>
  </g>
</svg>
