<svg xmlns="http://www.w3.org/2000/svg" width="44.792" height="50.101" viewBox="0 0 44.792 50.101">
  <g id="ionise" transform="translate(-39.298 -352.589)">
    <path id="Path_284" data-name="Path 284" d="M46.12,366.157c.213-.177.43-.351.642-.53a21,21,0,0,1,21.369-3.447,1.241,1.241,0,0,1,.545,2.006,1.263,1.263,0,0,1-1.408.326c-.83-.28-1.651-.6-2.5-.8a18.281,18.281,0,0,0-14.129,2.172,17.5,17.5,0,0,0-3.958,3.248A18.59,18.59,0,0,0,44.1,390.667a17.447,17.447,0,0,0,2.288,3.242,18.573,18.573,0,0,0,24.192,3.2,17.715,17.715,0,0,0,4.117-3.748,18.4,18.4,0,0,0,4.048-9.781,18.161,18.161,0,0,0-.245-5.416c-.01-.054-.025-.107-.051-.212-.15.359-.28.671-.409.984-.092.225-.188.446-.272.674a1.248,1.248,0,1,1-2.3-.942q.946-2.292,1.892-4.583a1.7,1.7,0,0,1,.559-.858,1.243,1.243,0,0,1,1.557.1q2.136,2.122,4.257,4.263a1.24,1.24,0,0,1-1.769,1.738c-.279-.271-.553-.55-.879-.876.022.18.035.295.049.41a20.838,20.838,0,0,1-2.972,13.906,19.421,19.421,0,0,1-2.22,2.955,2.11,2.11,0,0,0-.136.186q-.638.636-1.273,1.273c-.073.055-.152.105-.219.166a19.635,19.635,0,0,1-3.768,2.69,20.866,20.866,0,0,1-15.082,2.087,20.448,20.448,0,0,1-8.866-4.511,20.758,20.758,0,0,1-2.886-3.04,20.316,20.316,0,0,1-2.679-4.528,20.9,20.9,0,0,1-1.022-13.746,20.352,20.352,0,0,1,4.234-8.143c.183-.217.362-.438.543-.659Q45.452,366.823,46.12,366.157Z" fill="#009e54" fill-rule="evenodd"/>
    <g id="Group_129" data-name="Group 129">
      <circle id="Ellipse_23" data-name="Ellipse 23" cx="7.333" cy="7.333" r="7.333" transform="translate(63.288 358.202) rotate(-22.5)" fill="#009e54"/>
      <path id="Path_285" data-name="Path 285" d="M74.356,360.775v-3.728H71.443v3.728H67.777v2.852h3.666v3.666h2.913v-3.666h3.6v-2.852Z" fill="#e5e5e5"/>
    </g>
    <g id="Group_130" data-name="Group 130">
      <circle id="Ellipse_24" data-name="Ellipse 24" cx="5.666" cy="5.666" r="5.666" transform="translate(54.681 366.04)" fill="#009e54"/>
      <path id="Path_286" data-name="Path 286" d="M61.5,370.628v-2.88H59.245v2.88H56.412v2.2h2.832v2.833H61.5v-2.833h2.785v-2.2Z" fill="#e5e5e5"/>
    </g>
    <g id="Group_131" data-name="Group 131">
      <path id="Path_287" data-name="Path 287" d="M74.013,387.706a8.333,8.333,0,1,1-8.333-8.332A8.334,8.334,0,0,1,74.013,387.706Z" fill="#009e54"/>
      <path id="Path_288" data-name="Path 288" d="M67.37,386.121v-4.235H64.06v4.235H59.894v3.24H64.06v4.166h3.31v-4.166h4.1v-3.24Z" fill="#e5e5e5"/>
    </g>
    <g id="Group_132" data-name="Group 132">
      <path id="Path_289" data-name="Path 289" d="M54.81,385.506a4.666,4.666,0,1,1-4.665-4.665A4.666,4.666,0,0,1,54.81,385.506Z" fill="#009e54"/>
      <path id="Path_290" data-name="Path 290" d="M51.09,384.619v-2.371H49.237v2.371H46.9v1.814h2.333v2.333H51.09v-2.333h2.293v-1.814Z" fill="#e5e5e5"/>
    </g>
  </g>
</svg>
