<svg xmlns="http://www.w3.org/2000/svg" width="42.147" height="39.544" viewBox="0 0 42.147 39.544">
  <g id="non-irr" transform="translate(-435.714 -148.142)">
    <g id="Group_148" data-name="Group 148">
      <path id="Path_317" data-name="Path 317" d="M442.134,153.311c.2-.166.4-.331.6-.5a19.757,19.757,0,0,1,20.108-3.245,1.169,1.169,0,0,1,.512,1.888,1.19,1.19,0,0,1-1.325.307c-.781-.264-1.554-.566-2.352-.756a17.191,17.191,0,0,0-13.3,2.043,16.466,16.466,0,0,0-3.724,3.056,17.488,17.488,0,0,0-2.427,20.266,16.515,16.515,0,0,0,2.152,3.052,17.478,17.478,0,0,0,22.764,3.007,16.63,16.63,0,0,0,3.874-3.527,17.315,17.315,0,0,0,3.809-9.2,17.029,17.029,0,0,0-.231-5.1c-.009-.05-.023-.1-.047-.2-.141.339-.263.632-.385.927-.086.21-.178.419-.256.633a1.175,1.175,0,1,1-2.168-.886q.891-2.155,1.78-4.312a1.588,1.588,0,0,1,.527-.808,1.17,1.17,0,0,1,1.465.091q2.008,2,4,4.012a1.167,1.167,0,0,1-1.665,1.636c-.262-.257-.519-.519-.826-.825.02.168.031.277.046.385a19.6,19.6,0,0,1-2.8,13.086,18.223,18.223,0,0,1-2.088,2.78,1.71,1.71,0,0,0-.128.175l-1.2,1.2c-.068.051-.142.1-.206.155a18.489,18.489,0,0,1-3.545,2.53,19.621,19.621,0,0,1-14.191,1.965,19.246,19.246,0,0,1-8.343-4.244,19.61,19.61,0,0,1-2.716-2.861,19.093,19.093,0,0,1-2.52-4.262,19.655,19.655,0,0,1-.962-12.934,19.172,19.172,0,0,1,3.983-7.661c.173-.205.34-.413.511-.62Z" fill="#fff" fill-rule="evenodd"/>
    </g>
    <g id="PyCDee.tif">
      <g id="Group_149" data-name="Group 149">
        <path id="Path_318" data-name="Path 318" d="M444.347,177.331a3.011,3.011,0,0,1,4.414.21,1.74,1.74,0,0,0,2.359.375,1.778,1.778,0,0,0,.224-2.452,3.05,3.05,0,0,1,.276-3.71,2.921,2.921,0,0,1,3.678-.426,5.539,5.539,0,0,1,.762.672,1.776,1.776,0,0,0,2.39.266,1.823,1.823,0,0,0,.206-2.408,2.926,2.926,0,0,1,4.408-3.814c.122.12.234.25.361.364a1.666,1.666,0,0,0,2.242.227,1.722,1.722,0,0,0,.345-2.237,5.218,5.218,0,0,1-.592-1.483,2.659,2.659,0,0,1,1.291-2.8c.239.308.455.589.72.932-1.011.926-.878,1.876-.187,3.007a2.935,2.935,0,0,1-.82,3.756,3.008,3.008,0,0,1-3.833-.34,4.527,4.527,0,0,0-.622-.581,1.567,1.567,0,0,0-1.909.037,1.491,1.491,0,0,0-.546,1.816c.148.424.448.792.61,1.212a2.92,2.92,0,0,1-4.9,2.994,1.721,1.721,0,0,0-2.331-.529,1.619,1.619,0,0,0-.57,2.164,9.328,9.328,0,0,1,.567,1.142,2.9,2.9,0,0,1-1.141,3.3,2.78,2.78,0,0,1-3.607-.3,2.11,2.11,0,0,0-3.066-.445C444.833,177.963,444.59,177.648,444.347,177.331Z" fill="#fff" fill-rule="evenodd"/>
        <path id="Path_319" data-name="Path 319" d="M442.468,174.894c.262-.219.518-.445.789-.653q10.317-7.954,20.637-15.906l.847-.653.815,1.057-.854.656q-10.284,7.927-20.569,15.856c-.29.224-.554.483-.829.726Q442.884,175.435,442.468,174.894Z" fill="#fff" fill-rule="evenodd"/>
        <path id="Path_320" data-name="Path 320" d="M452.4,181.286c-.187.642-.187,1.165-.423,1.314-.266.168-.746,0-1.131-.022.036-.409-.058-.919.155-1.193C451.152,181.191,451.716,181.317,452.4,181.286Z" fill="#fff" fill-rule="evenodd"/>
        <path id="Path_321" data-name="Path 321" d="M461.386,174.326c-.186.641-.184,1.167-.427,1.332a1.179,1.179,0,0,1-1.1-.089.666.666,0,0,1,.1-1.145C460.263,174.253,460.717,174.358,461.386,174.326Z" fill="#fff" fill-rule="evenodd"/>
        <path id="Path_322" data-name="Path 322" d="M469.842,169.05c-.352-.119-.9-.147-1.009-.38-.144-.31.057-.778.11-1.178.382.055.92-.021,1.109.2.2.239.079.756.1,1.15Z" fill="#fff" fill-rule="evenodd"/>
        <path id="Path_323" data-name="Path 323" d="M467.925,173.495c-.214.652-.231,1.164-.478,1.329a1.159,1.159,0,0,1-1.079-.078.658.658,0,0,1,.125-1.136C466.792,173.443,467.236,173.537,467.925,173.495Z" fill="#fff" fill-rule="evenodd"/>
        <path id="Path_324" data-name="Path 324" d="M458.868,180.726c-.125.355-.153.866-.4,1.02a1.159,1.159,0,0,1-1.075-.11.658.658,0,0,1,.151-1.131,2.8,2.8,0,0,1,1.117-.063C458.728,180.536,458.8,180.631,458.868,180.726Z" fill="#fff" fill-rule="evenodd"/>
      </g>
    </g>
  </g>
</svg>
