<svg xmlns="http://www.w3.org/2000/svg" width="42.147" height="39.544" viewBox="0 0 42.147 39.544">
  <g id="non-tox" transform="translate(-403.365 -103.954)">
    <path id="Path_312" data-name="Path 312" d="M409.784,109.122q.3-.248.605-.5A19.752,19.752,0,0,1,430.5,105.38a1.169,1.169,0,0,1,.513,1.888,1.19,1.19,0,0,1-1.325.306c-.781-.263-1.554-.565-2.352-.756a17.2,17.2,0,0,0-13.3,2.043,16.445,16.445,0,0,0-3.724,3.056,17.49,17.49,0,0,0-2.427,20.267,16.508,16.508,0,0,0,2.152,3.051,17.477,17.477,0,0,0,22.764,3.008,16.714,16.714,0,0,0,3.874-3.527,17.3,17.3,0,0,0,3.808-9.2,17,17,0,0,0-.23-5.1c-.009-.05-.023-.1-.048-.2-.141.339-.263.632-.384.927-.087.211-.178.42-.257.633a1.174,1.174,0,1,1-2.167-.885q.891-2.157,1.78-4.312a1.586,1.586,0,0,1,.526-.808,1.168,1.168,0,0,1,1.465.091q2.01,2,4.007,4.012a1.167,1.167,0,0,1-1.665,1.636c-.263-.258-.521-.52-.827-.825.02.168.032.276.045.385a19.6,19.6,0,0,1-2.8,13.085,18.24,18.24,0,0,1-2.089,2.781,1.859,1.859,0,0,0-.128.174q-.6.6-1.2,1.2c-.068.052-.143.1-.207.155a18.413,18.413,0,0,1-3.544,2.531,19.623,19.623,0,0,1-14.192,1.964,19.237,19.237,0,0,1-8.342-4.244,19.5,19.5,0,0,1-2.715-2.861A19.057,19.057,0,0,1,405,131.593a19.662,19.662,0,0,1-.961-12.934A19.152,19.152,0,0,1,408.019,111c.172-.2.339-.413.51-.62Q409.156,109.75,409.784,109.122Z" fill="#fff" fill-rule="evenodd"/>
    <path id="Path_313" data-name="Path 313" d="M428.131,116.464c-.949,1.74-1.879,3.444-2.771,5.077a10.109,10.109,0,0,0-2.068-.437,9.765,9.765,0,0,0-2.035.423c-.819-1.5-1.686-3.076-2.55-4.658-.075-.138-.141-.282-.208-.418A9.459,9.459,0,0,1,428.131,116.464Z" fill="#fff" fill-rule="evenodd"/>
    <path id="Path_314" data-name="Path 314" d="M418.457,133a9.683,9.683,0,0,1-4.743-8.132h5.932a3.817,3.817,0,0,0,1.856,2.992C420.486,129.575,419.49,131.257,418.457,133Z" fill="#fff" fill-rule="evenodd"/>
    <path id="Path_315" data-name="Path 315" d="M432.792,124.895c.376,2.734-1.849,6.55-4.745,8.1-.994-1.677-1.991-3.356-3.022-5.092a3.862,3.862,0,0,0,1.918-3.012Z" fill="#fff" fill-rule="evenodd"/>
    <path id="Path_316" data-name="Path 316" d="M423.273,122.838a1.891,1.891,0,0,1,1.913,1.849,1.891,1.891,0,0,1-3.782.044A1.892,1.892,0,0,1,423.273,122.838Z" fill="#fff" fill-rule="evenodd"/>
  </g>
</svg>
