<svg xmlns="http://www.w3.org/2000/svg" width="44.792" height="42.026" viewBox="0 0 44.792 42.026">
  <g id="purify" transform="translate(-39.298 -92.815)">
    <path id="Path_270" data-name="Path 270" d="M46.12,98.307c.213-.176.43-.351.642-.529A21,21,0,0,1,68.131,94.33a1.241,1.241,0,0,1,.545,2.006,1.263,1.263,0,0,1-1.408.326c-.83-.28-1.651-.6-2.5-.8A18.276,18.276,0,0,0,50.639,98.03a17.522,17.522,0,0,0-3.958,3.248A18.588,18.588,0,0,0,44.1,122.816a17.5,17.5,0,0,0,2.288,3.244,18.571,18.571,0,0,0,24.192,3.2,17.693,17.693,0,0,0,4.117-3.748,18.4,18.4,0,0,0,4.048-9.78,18.168,18.168,0,0,0-.245-5.417c-.01-.054-.025-.106-.051-.212-.15.36-.28.672-.409.985-.092.224-.188.446-.272.673a1.248,1.248,0,1,1-2.3-.942q.946-2.291,1.892-4.582a1.687,1.687,0,0,1,.559-.858,1.243,1.243,0,0,1,1.557.1q2.136,2.123,4.257,4.263a1.241,1.241,0,0,1-1.769,1.74c-.279-.274-.553-.553-.879-.878.022.179.035.295.049.41a20.841,20.841,0,0,1-2.972,13.907,19.412,19.412,0,0,1-2.22,2.954,2.111,2.111,0,0,0-.136.186l-1.273,1.274c-.073.055-.152.1-.219.165a19.544,19.544,0,0,1-3.768,2.689,20.851,20.851,0,0,1-15.082,2.088,20.457,20.457,0,0,1-8.866-4.51,20.766,20.766,0,0,1-2.886-3.041,20.279,20.279,0,0,1-2.679-4.529,20.9,20.9,0,0,1-1.022-13.746,20.361,20.361,0,0,1,4.234-8.142c.183-.217.362-.439.543-.658Z" fill="#009e54" fill-rule="evenodd"/>
    <path id="Path_271" data-name="Path 271" d="M54.7,125.639a4.118,4.118,0,0,0,.483,1.816,1.238,1.238,0,0,1-2.121,1.279,6.117,6.117,0,0,1-.83-2.824c-.035-.383-.026-.77-.042-1.155a.529.529,0,0,0-.058-.241,14.577,14.577,0,0,1-1.692-11.091,17.293,17.293,0,0,1,2.721-6.249,17.523,17.523,0,0,1,3.194-3.473,22.254,22.254,0,0,1,8.933-4.4c2.181-.552,4.385-.983,6.608-1.33a1.205,1.205,0,0,1,1.313.55,1.234,1.234,0,0,1-.073,1.459c-.479.708-.968,1.41-1.411,2.142a4.272,4.272,0,0,0-.455,1.119,18.606,18.606,0,0,0-.543,3.874c-.1,2.126-.191,4.254-.308,6.378a13.615,13.615,0,0,1-1.828,6.243,10.957,10.957,0,0,1-5.535,4.731,18.088,18.088,0,0,1-6.956,1.213C55.643,125.674,55.186,125.653,54.7,125.639Zm14.822-24.73c-.083.013-.146.02-.208.033-.976.213-1.954.416-2.927.641a20.155,20.155,0,0,0-8.127,3.786,15.406,15.406,0,0,0-2.685,2.722,14.75,14.75,0,0,0-2.476,4.962,13.272,13.272,0,0,0-.174,7.065c.034.134.075.267.124.444.041-.081.062-.115.078-.152a39.006,39.006,0,0,1,4.23-7.5c.756-1.08,1.552-2.134,2.374-3.164.592-.741,1.237-1.441,1.9-2.123a5.451,5.451,0,0,1,1.122-.882,1.2,1.2,0,0,1,1.639.5,1.278,1.278,0,0,1-.428,1.644,4.249,4.249,0,0,0-.857.734c-.855,1.013-1.708,2.031-2.514,3.084a48.712,48.712,0,0,0-3.745,5.689,20.549,20.549,0,0,0-1.9,4.216c-.051.172-.089.349-.137.543.4.014.766.034,1.13.039a15.8,15.8,0,0,0,6.228-1.046,8.5,8.5,0,0,0,3.7-2.785,9.781,9.781,0,0,0,1.949-4.843c.173-1.517.214-3.048.31-4.573.105-1.675.166-3.354.32-5.025a11.759,11.759,0,0,1,.731-3.247C69.267,101.417,69.4,101.173,69.521,100.909Z" fill="#009e54" fill-rule="evenodd"/>
  </g>
</svg>
