<svg xmlns="http://www.w3.org/2000/svg" width="42.147" height="39.544" viewBox="0 0 42.147 39.544">
  <g id="remove_od" transform="translate(-361.17 -61.302)">
    <path id="Path_308" data-name="Path 308" d="M367.589,66.471c.2-.166.4-.331.6-.5A19.753,19.753,0,0,1,388.3,62.729a1.167,1.167,0,0,1,.512,1.887,1.19,1.19,0,0,1-1.325.307c-.781-.263-1.553-.565-2.352-.756a17.2,17.2,0,0,0-13.295,2.044,16.414,16.414,0,0,0-3.724,3.056,17.492,17.492,0,0,0-2.427,20.266,16.508,16.508,0,0,0,2.152,3.051,17.475,17.475,0,0,0,22.764,3.007,16.63,16.63,0,0,0,3.874-3.527,17.3,17.3,0,0,0,3.809-9.2,17.062,17.062,0,0,0-.23-5.1c-.01-.05-.023-.1-.048-.2-.141.339-.263.632-.385.927-.086.211-.178.42-.256.634a1.174,1.174,0,1,1-2.167-.887q.889-2.155,1.779-4.311a1.588,1.588,0,0,1,.527-.808,1.169,1.169,0,0,1,1.465.091q2.008,2,4.006,4.011a1.168,1.168,0,0,1-1.665,1.637c-.263-.257-.52-.52-.827-.826.02.169.032.277.046.385a19.607,19.607,0,0,1-2.8,13.086,18.134,18.134,0,0,1-2.089,2.78,2.069,2.069,0,0,0-.128.175l-1.2,1.2c-.068.051-.142.1-.206.155a18.372,18.372,0,0,1-3.545,2.53,19.616,19.616,0,0,1-14.191,1.965,19.246,19.246,0,0,1-8.343-4.244,19.553,19.553,0,0,1-2.715-2.861,19.076,19.076,0,0,1-2.521-4.261,19.665,19.665,0,0,1-.962-12.935,19.168,19.168,0,0,1,3.984-7.661c.173-.2.34-.413.51-.619Z" fill="#fff" fill-rule="evenodd"/>
    <path id="Path_309" data-name="Path 309" d="M373.7,96.963c.194-.515.362-.943.516-1.376a8.717,8.717,0,0,0-1.073-8.206c-1.147-1.694-2.345-3.369-3.314-5.163-2.865-5.309-.756-10.966,4.847-13.28a33.1,33.1,0,0,0-1.453,3.689,9.439,9.439,0,0,0,1.786,8.382,18.864,18.864,0,0,1,3.715,6.971A7.569,7.569,0,0,1,373.7,96.963Z" fill="#fff" fill-rule="evenodd"/>
    <path id="Path_310" data-name="Path 310" d="M390.677,96.9c.285-1.3.688-2.613.847-3.96a8.519,8.519,0,0,0-1.831-5.967,46.122,46.122,0,0,1-3.045-4.7c-2.879-5.447-.84-10.921,4.8-13.333a35.327,35.327,0,0,0-1.491,4.006c-.8,3.247.382,5.992,2.213,8.661a24.127,24.127,0,0,1,3.22,6.174C396.647,91.728,394.543,95.425,390.677,96.9Z" fill="#fff" fill-rule="evenodd"/>
    <path id="Path_311" data-name="Path 311" d="M381.963,97.067c2.089-4.173,1.286-7.694-1.33-11.044a24.986,24.986,0,0,1-2.762-4.564,9.02,9.02,0,0,1,5.162-12.474,36.13,36.13,0,0,0-1.462,3.91c-.828,3.249.295,6.029,2.183,8.663a25.008,25.008,0,0,1,2.94,5.046C388.475,90.987,386.646,95.037,381.963,97.067Z" fill="#fff" fill-rule="evenodd"/>
  </g>
</svg>
