<svg xmlns="http://www.w3.org/2000/svg" width="44.792" height="42.026" viewBox="0 0 44.792 42.026">
  <g id="sanitise" transform="translate(-39.298 -230.467)">
    <path id="Path_276" data-name="Path 276" d="M46.12,235.959c.213-.175.43-.349.642-.529a21,21,0,0,1,21.369-3.447,1.242,1.242,0,0,1,.545,2.007,1.266,1.266,0,0,1-1.408.325c-.83-.28-1.651-.6-2.5-.8a18.276,18.276,0,0,0-14.129,2.171,17.5,17.5,0,0,0-3.958,3.248A18.589,18.589,0,0,0,44.1,260.469a17.487,17.487,0,0,0,2.288,3.243,18.57,18.57,0,0,0,24.192,3.2,17.732,17.732,0,0,0,4.117-3.747,18.409,18.409,0,0,0,4.048-9.783,18.156,18.156,0,0,0-.245-5.415c-.01-.054-.025-.106-.051-.212-.15.359-.28.671-.409.984-.092.224-.188.447-.272.674a1.249,1.249,0,1,1-2.3-.943q.946-2.289,1.892-4.582a1.692,1.692,0,0,1,.559-.857,1.24,1.24,0,0,1,1.557.1q2.136,2.123,4.257,4.262a1.24,1.24,0,0,1-1.769,1.739c-.279-.272-.553-.551-.879-.876.022.178.035.293.049.409a20.841,20.841,0,0,1-2.972,13.907,19.463,19.463,0,0,1-2.22,2.954,1.989,1.989,0,0,0-.136.187c-.425.423-.848.849-1.273,1.273-.073.055-.152.1-.219.165a19.588,19.588,0,0,1-3.768,2.689,20.851,20.851,0,0,1-15.082,2.088,20.468,20.468,0,0,1-8.866-4.51,20.767,20.767,0,0,1-2.886-3.041,20.3,20.3,0,0,1-2.679-4.528A20.9,20.9,0,0,1,40.009,246.1a20.344,20.344,0,0,1,4.234-8.141c.183-.218.362-.44.543-.66Z" fill="#009e54" fill-rule="evenodd"/>
    <g id="cy7SUB.tif">
      <g id="Group_122" data-name="Group 122">
        <path id="Path_277" data-name="Path 277" d="M59.757,239.365A4.589,4.589,0,0,1,62,240.846c3.075,3.1,6.171,6.178,9.254,9.268a2.352,2.352,0,0,1,.2,3.332c-.43.488-.625.525-1.213.239a4.893,4.893,0,0,0-7.007,3.453,4.955,4.955,0,0,0,3.783,5.786,4.876,4.876,0,0,0,5.76-3.59c.037-.138.059-.282.094-.421a.6.6,0,0,1,.746-.511.59.59,0,0,1,.5.749,5.9,5.9,0,0,1-1.071,2.6,6.153,6.153,0,0,1-9.589.511c-.139-.152-.272-.309-.455-.518-.307.334-.595.646-.881.96-.272.3-.533.6-.814.886a2.3,2.3,0,0,1-3.325.071q-5.11-5.07-10.181-10.181a2.312,2.312,0,0,1,.034-3.226c3.376-3.389,6.75-6.78,10.16-10.133a5.573,5.573,0,0,1,1.472-.757Zm-4.133,9.017c-.005.064-.023.174-.024.284,0,1.445-.033,2.888.019,4.33a2.434,2.434,0,0,0,.427,1.239,6.637,6.637,0,0,0,1.327,1.445c1.875,1.455,2.587,1.429,4.47,0a3.992,3.992,0,0,0,1.81-3.792,32.409,32.409,0,0,1-.024-3.495c-.88-.187-1.717-.322-2.526-.554-.516-.146-.993-.617-1.485-.614-.513,0-1.006.459-1.538.613C57.285,248.065,56.464,248.2,55.624,248.382Zm9.525-1.593a2.889,2.889,0,0,0-.3-.043,9.725,9.725,0,0,1-5.037-1.393.61.61,0,0,0-.5.053,9.892,9.892,0,0,1-4.769,1.324c-.407.009-.471.159-.469.51.012,1.989-.029,3.979.029,5.968a3.339,3.339,0,0,0,.494,1.618,9.231,9.231,0,0,0,2.969,2.9,3.436,3.436,0,0,0,3.924.07.785.785,0,0,0,.45-.9c-.519.252-1.017.5-1.52.737a1.939,1.939,0,0,1-1.624.028A8.132,8.132,0,0,1,54.95,254.3a1.7,1.7,0,0,1-.268-.858c-.021-2.005-.009-4.009,0-6.014,0-.026.03-.052.047-.077a.284.284,0,0,1,.088-.035,10.816,10.816,0,0,0,4.591-1.294.658.658,0,0,1,.47.04c.838.313,1.653.7,2.509.953a18.91,18.91,0,0,0,2.215.377v5.462c.548-.221.55-.221.551-.692,0-.675,0-1.348,0-2.022Z" fill="#009e54" fill-rule="evenodd"/>
        <path id="Path_278" data-name="Path 278" d="M75.073,253.91l-4.785,5c-.422.439-.842.881-1.273,1.311-.355.355-.6.355-.938.006q-1.325-1.361-2.642-2.729c-.225-.234-.419-.486-.154-.794.242-.283.513-.162.774.006.7.45,1.415.881,2.106,1.349a.457.457,0,0,0,.66-.046c1.686-1.431,3.387-2.847,5.083-4.268.57-.478.694-.471,1.169.071Z" fill="#009e54" fill-rule="evenodd"/>
      </g>
    </g>
  </g>
</svg>
