<svg xmlns="http://www.w3.org/2000/svg" width="50.425" height="41.826" viewBox="0 0 50.425 41.826">
  <g id="school-edu" transform="translate(-37.853 -399.886)">
    <g id="Group_93" data-name="Group 93">
      <path id="Path_223" data-name="Path 223" d="M37.853,441.712v-2.093h3.286v-.69q0-7.7-.009-15.412a.821.821,0,0,1,.425-.8c1.161-.734,2.295-1.511,3.457-2.246a1.678,1.678,0,0,1,.821-.246c1.173-.027,2.347-.011,3.558-.011V414.06c-.59.318-1.148.619-1.769.957-.344-.617-.677-1.213-1.026-1.84.153-.1.272-.181.4-.252q6.243-3.483,12.489-6.957a2.146,2.146,0,0,1,.932-.244c.859-.033,1.721-.012,2.649-.012v-5.826c1.037.3,1.995.614,2.971.86a3.292,3.292,0,0,0,2.22-.3,4,4,0,0,1,.561-.162v2c-.746.14-1.521.343-2.309.412a4.035,4.035,0,0,1-1.24-.268c-.5-.123-.983-.277-1.485-.365-.114-.022-.381.168-.383.265-.028,1.106-.018,2.213-.018,3.379.851,0,1.657-.007,2.462.006a1.355,1.355,0,0,1,.615.131q6.466,3.592,12.921,7.2c.042.024.076.061.166.131-.332.6-.663,1.195-1.019,1.836-.6-.324-1.156-.631-1.771-.967v6.159a14.207,14.207,0,0,0,1.728-.012,5.2,5.2,0,0,1,4.17,1.238,13.709,13.709,0,0,0,1.864,1.229.912.912,0,0,1,.5.912C85,428.681,85,433.785,85,438.89v.7h3.273v2.123Zm22.679-11.74v9.5h5.089v-9.5H60.532Zm6.316-14.545a3.775,3.775,0,1,0-3.744,3.791A3.783,3.783,0,0,0,66.848,415.427Zm11,21.217v-4.836H75.742v4.836Zm-4.195.008v-4.844H71.57v4.844Zm-19.081,0v-4.834H52.486v4.834Zm-4.172,0v-4.84H48.292v4.84Zm31.6-6.693V425.13H79.915v4.823Zm-4.16.005v-4.835h-2.1v4.835Zm-4.181,0v-4.835h-2.1v4.835Zm-4.179,0v-4.84H67.4v4.84Zm-12.831-4.84v4.82h2.093v-4.82Zm-4.172-.006v4.828H54.57v-4.828Zm-2.074.01H48.3v4.828h2.113Zm-4.187,4.834V425.13H44.129v4.823Zm.005,6.718v-4.855H44.1c0,1.559,0,3.078.009,4.6,0,.086.139.244.218.246C44.952,436.681,45.577,436.671,46.227,436.671Zm12.551-4.863H56.651v4.867c.64,0,1.249.016,1.856-.017.1,0,.253-.227.258-.354.026-.629.012-1.258.013-1.886Zm10.719.01H67.37c0,1.56,0,3.08.009,4.6a.342.342,0,0,0,.222.244c.623.019,1.246.009,1.9.009Zm10.417,4.824h2.092V431.82H79.914Zm-7.187-21.664v4.211h1.649c0-1.338,0-2.654-.011-3.969a.339.339,0,0,0-.235-.232C73.674,414.966,73.216,414.978,72.727,414.978Zm-2.506.027v4.188h1.6v-4.188Zm-14.286.01h-1.6V419.2h1.6Zm-2.517,4.176v-4.215c-.438,0-.847.014-1.255-.006-.3-.013-.41.092-.4.4.015.775,0,1.552,0,2.328v1.5Z" fill="#009e54" fill-rule="evenodd"/>
      <path id="Path_224" data-name="Path 224" d="M64.576,417.683c-.131-.07-.3-.109-.386-.215-.452-.547-.883-1.111-1.321-1.67-.039-.05-.1-.109-.1-.166-.011-.839-.019-1.681-.013-2.521,0-.059.121-.117.187-.176.061.1.171.2.174.309.018.593-.022,1.189.024,1.781a1.78,1.78,0,0,0,.3.842c.389.564.834,1.09,1.255,1.633C64.654,417.56,64.615,417.623,64.576,417.683Z" fill="#009e54" fill-rule="evenodd"/>
    </g>
  </g>
</svg>
