<svg xmlns="http://www.w3.org/2000/svg" width="44.792" height="42.025" viewBox="0 0 44.792 42.025">
  <g id="sterlise" transform="translate(-39.298 -299.665)">
    <path id="Path_279" data-name="Path 279" d="M46.12,305.157c.213-.177.43-.351.642-.53a21,21,0,0,1,21.369-3.447,1.241,1.241,0,0,1,.545,2.006,1.263,1.263,0,0,1-1.408.326c-.83-.28-1.651-.6-2.5-.8a18.281,18.281,0,0,0-14.129,2.172,17.5,17.5,0,0,0-3.958,3.248A18.59,18.59,0,0,0,44.1,329.667a17.447,17.447,0,0,0,2.288,3.242,18.573,18.573,0,0,0,24.192,3.2,17.715,17.715,0,0,0,4.117-3.748,18.4,18.4,0,0,0,4.048-9.781,18.161,18.161,0,0,0-.245-5.416c-.01-.054-.025-.107-.051-.212-.15.359-.28.671-.409.984-.092.225-.188.446-.272.674a1.248,1.248,0,1,1-2.3-.942q.946-2.292,1.892-4.583a1.7,1.7,0,0,1,.559-.858,1.243,1.243,0,0,1,1.557.1q2.136,2.122,4.257,4.263a1.24,1.24,0,0,1-1.769,1.738c-.279-.271-.553-.55-.879-.876.022.18.035.295.049.41a20.838,20.838,0,0,1-2.972,13.906,19.421,19.421,0,0,1-2.22,2.955,2.11,2.11,0,0,0-.136.186q-.638.636-1.273,1.273c-.073.055-.152.105-.219.166a19.635,19.635,0,0,1-3.768,2.69,20.866,20.866,0,0,1-15.082,2.087,20.448,20.448,0,0,1-8.866-4.511,20.758,20.758,0,0,1-2.886-3.04,20.316,20.316,0,0,1-2.679-4.528,20.9,20.9,0,0,1-1.022-13.746,20.352,20.352,0,0,1,4.234-8.143c.183-.217.362-.438.543-.659Q45.452,305.823,46.12,305.157Z" fill="#009e54" fill-rule="evenodd"/>
    <g id="Group_128" data-name="Group 128">
      <g id="Group_127" data-name="Group 127">
        <path id="Path_282" data-name="Path 282" d="M72.071,319.564v3.844H62.622v9.608h-4v-9.608H49.009v-3.844h9.609v-9.77h4v9.77Z" fill="#009e54"/>
        <path id="Path_283" data-name="Path 283" d="M64.438,334.833H56.8v-9.61H47.193v-7.475H56.8v-9.77h7.636v9.77h9.449v7.475H64.438Zm-4-3.632h.372v-9.61h9.449v-.212H60.806V311.61h-.372v9.769H50.825v.212h9.609Z" fill="#009e54"/>
      </g>
    </g>
  </g>
</svg>
